<svg xmlns="http://www.w3.org/2000/svg" width="1440" height="136" viewBox="0 0 1440 136">
    <g fill="none" fill-rule="evenodd">
        <path fill="#837A7A" d="M1440 0v13H308.962v.071C307.266 81.241 249.282 136 178 136 106.694 136 48.694 81.203 47.036 13.001L0 13V0h1440z"/>
        <text fill="#FFF" font-family="PingFangTC-Semibold, PingFang TC" font-size="48" font-weight="500" letter-spacing="3.333" transform="translate(0 -947)">
            <tspan x="126" y="1028">學歷</tspan>
        </text>
        <text fill="#000" font-family="PingFangTC-Light, PingFang TC" font-size="28" font-weight="300" letter-spacing="1.944" transform="translate(0 -947)">
             <tspan x="242" y="1122">​美國威斯康辛大學(麥迪遜校區)電機博士(1992.07)</tspan> <tspan x="242" y="1164">美國密蘇里大學(羅拉校區)電機碩士(1987.08)</tspan> <tspan x="242" y="1206">國立臺北工業專科學校五年制電機工程科畢業(1982.06)</tspan> <tspan x="242" y="1248">現職國立台北科技大學校長（2011.2~）</tspan> <tspan x="242" y="1290">國立台北科技大學副校長（2009.8~2011.1）</tspan> <tspan x="242" y="1332">國立台北科技大學電機系教授（1997.8~）</tspan> <tspan x="242" y="1374">經濟部技術審議委員會委員（2009.8~）</tspan> <tspan x="242" y="1416">財團法人全國認證基金會董事（2009.5~）</tspan> <tspan x="242" y="1458">經濟部電機工程國家標準技術委員會委員（2009.7~）</tspan> <tspan x="242" y="1500">技專校院招生委員會聯合會副主任（2010.2~）</tspan> <tspan x="242" y="1542">中華工程教育學會（IEET）教育發展委員會委員（2009.8~）</tspan> <tspan x="242" y="1584">國立台北科技大學文教基金會常務董事（2009.8~）</tspan> <tspan x="242" y="1626">中華台北亞太工程師監督委員會委員（2008.8~）</tspan> <tspan x="242" y="1668">中華民國系統學會常務理事 （2009.7~）</tspan> <tspan x="242" y="1710">中華民國模糊學會監事（2010.1~）</tspan> <tspan x="242" y="1752">IEEE Senior Member （2004.1~）</tspan> <tspan x="242" y="1794">主要經歷國立臺北工業專科學校電機工程系講師(1992.08.01~1992.08.24)</tspan> <tspan x="242" y="1836">國立臺北工業專科學校副教授(1992.08.24~1997.07.31)</tspan> <tspan x="242" y="1878">國立臺北工業專科學校、</tspan> <tspan x="242" y="1920">國立臺北技術學院教務處註冊組組長(1993.08.01~1997.07.31)</tspan> <tspan x="242" y="1962">國立臺北科技大學教務長(2004.02~2009.07)</tspan> <tspan x="242" y="2004">教育部升學制度審議委員會委員（2008.5~2010.7）</tspan> <tspan x="242" y="2046">國立台北科技大學教務長（2004.2~2009.7）</tspan> <tspan x="242" y="2088">教育部招生策進總會執行長（2005.2~2009.7）</tspan> <tspan x="242" y="2130">教育部98年職業學校電機電子群課程綱要制定委員會召集人（2006.8~2008.7）</tspan> <tspan x="242" y="2172">中華民國真空技術學會副理事長（2004.1~2006.12）</tspan> <tspan x="242" y="2214">國科會控制學門複審委員（2003.8~2006.7）</tspan> <tspan x="242" y="2256">國科會工程處諮議委員（2003.1~2005.12）</tspan> <tspan x="242" y="2298">國立台北科技大學機電學院院長（1999.8~2004.7）</tspan> <tspan x="242" y="2340">國立台北科技大學機電科技研究所所長（2001.8~2004.7）</tspan> <tspan x="242" y="2382">中華民國模糊系統學會、真空學會、系統學會、空調學會理事或常務理事長</tspan> <tspan x="242" y="2424">- 真空技術學會理事（2004.1~2008.12）</tspan> <tspan x="242" y="2466">- 模糊學會理事（2005.7~2007.6）</tspan> <tspan x="242" y="2508">- 系統學會理事（2005.5~2007.4）</tspan> <tspan x="242" y="2550">- 冷凍空調學會理事（2004.1~2005.12）</tspan> <tspan x="242" y="2592">美國名人錄協會提名委員會委員</tspan> <tspan x="242" y="2634">（Research Board of Advisors,</tspan> <tspan x="242" y="2676">American Biographical Institute）</tspan>
        </text>
    </g>
</svg>
