<svg xmlns="http://www.w3.org/2000/svg" width="1439" height="136" viewBox="0 0 1439 136">
    <g fill="none" fill-rule="evenodd">
        <path fill="#837A7A" d="M1439 0v13H307.962v.071C306.266 81.241 248.282 136 177 136 105.694 136 47.694 81.203 46.036 13.001L-1 13V0h1440z"/>
        <text fill="#FFF" font-family="PingFangTC-Semibold, PingFang TC" font-size="48" font-weight="500" letter-spacing="3.333" transform="translate(0 -2752)">
            <tspan x="100" y="2833">實驗室</tspan>
        </text>
        <path stroke="#D9D9D9" stroke-width="40" d="M693 90h647v439H693z"/>
        <text fill="#000" font-family="PingFangTC-Light, PingFang TC" font-size="28" font-weight="300" letter-spacing="1.944" transform="translate(471 70)">
            <tspan x="461" y="30">忠孝東路3段</tspan>
        </text>
        <path fill="#AAA" d="M1159 125h146v50h-146zM949 125h172v32H949z"/>
        <path fill="#FFA4A4" d="M734 126h74v224h-74z"/>
        <path fill="#AAA" d="M814 116h32v-6h-32z"/>
        <g fill="#000" font-family="PingFangTC-Light, PingFang TC" font-size="18" font-weight="300" letter-spacing="1.25">
            <text transform="translate(742 129)">
                <tspan x="256" y="19">共同科館</tspan>
            </text>
        </g>
    </g>
</svg>
